<?xml version="1.0" encoding="UTF-8"?>
<svg id="Capa_1" data-name="Capa 1" xmlns="http://www.w3.org/2000/svg" viewBox="0 0 27.95 28">
  <defs>
    <style>
      .cls-1 {
        fill: #3a6db4;
      }

      .cls-2 {
        fill: #fefeff;
      }
    </style>
  </defs>
  <path class="cls-1" d="M17.51,27.56c-.05.01-.13-.02-.17.06-.04,0-.08,0-.11,0-.2,0-1.24.29-1.3.23l.03-9.52h2.89l.6-4.02-3.57-.08v-3c0-.38.6-1.16.99-1.16h2.58v-3.37s.07-.05.03-.09l-.12-.06c-2.52.1-5.44-.63-6.92,1.98-.22.38-.59,1.36-.59,1.79v4h-3.34v4.02h3.34v9.52c-.32-.05-.77-.22-1.08-.23-.04,0-.08,0-.11,0-.03-.08-.11-.05-.17-.06-.02,0-.04,0-.06,0l-.11-.06s-.08,0-.11,0c-.02-.05-.07-.04-.11-.06C5.1,25.75,1.4,22.2.31,16.91-2.14,5.1,10.5-4.14,20.98,1.9s8.57,22.5-3.47,25.66Z"/>
  <path class="cls-2" d="M10.77,27.62c.31,0,.76.17,1.08.23v-9.52h-3.34v-4.02h3.34v-4c0-.42.38-1.4.59-1.79,1.47-2.61,4.4-1.88,6.92-1.98l.12.06s-.03.07-.03.09v3.37h-2.58c-.39,0-.99.78-.99,1.16v3l3.57.08-.6,4.02h-2.89l-.03,9.52c.06.06,1.11-.22,1.3-.23-.12.3-.47.12-.7.17-.04.01-.03.1-.08.11-.06.01-.91.06-1.06.06-1.23.05-2.8.09-3.92-.17-.22-.05-.57.12-.7-.17Z"/>
  <path class="cls-2" d="M10.65,27.62c-.06,0-.2.17-.17-.06.06,0,.14-.02.17.06Z"/>
  <path class="cls-2" d="M17.51,27.56c.03.23-.11.06-.17.06.04-.08.12-.04.17-.06Z"/>
  <path class="cls-2" d="M10.2,27.51s-.14.17-.11-.06c.04.01.09,0,.11.06Z"/>
  <path class="cls-2" d="M10.43,27.56c-.09-.02-.11-.06-.11-.06l.11.06Z"/>
</svg>