<?xml version="1.0" encoding="UTF-8"?>
<svg id="Capa_1" data-name="Capa 1" xmlns="http://www.w3.org/2000/svg" viewBox="0 0 28 22.75">
  <defs>
    <style>
      .cls-1 {
        fill: #3e93d1;
      }
    </style>
  </defs>
  <path class="cls-1" d="M23.46,1.67c.08.07.03.13.2.12.2-.01.59-.13.8-.19.97-.27,1.9-.69,2.78-1.19-.34,1.1-1.02,2.07-1.91,2.78-.14.11-.3.21-.45.31-.03.02-.07,0-.05.07,1.08-.15,2.14-.43,3.13-.89l.04.04c-.77,1.15-1.74,2.15-2.85,2.96.23,5.7-2.64,11.44-7.43,14.54-5.25,3.39-12.49,3.36-17.72-.07.3,0,.6.05.9.07,2.24.09,4.55-.51,6.46-1.67.38-.23.74-.49,1.1-.74,0-.04-.04-.02-.06-.03-2.43-.11-4.55-1.67-5.25-4,.69.13,1.38.14,2.07.02.13-.02.32-.04.41-.12-2.63-.52-4.57-3.01-4.51-5.68.79.39,1.65.68,2.54.71C1.22,7.03.44,3.64,1.94,1.06c.03-.02.11.07.13.09.22.23.42.51.64.75,2.84,3.04,6.88,4.95,11.07,5.13-.06-.25-.11-.51-.13-.77-.34-4.05,3.46-7.16,7.39-6.02,1,.29,1.66.77,2.43,1.44Z"/>
</svg>