<?xml version="1.0" encoding="iso-8859-1"?>
<!-- Uploaded to: SVG Repo, www.svgrepo.com, Generator: SVG Repo Mixer Tools -->
<svg fill="#000000" height="800px" width="800px" version="1.1" id="Layer_1" xmlns="http://www.w3.org/2000/svg" xmlns:xlink="http://www.w3.org/1999/xlink" 
	 viewBox="0 0 512 512" xml:space="preserve">
<g>
	<g>
		<g>
			<path d="M256,106.667c29.397,0,53.333-23.936,53.333-53.333S285.397,0,256,0s-53.333,23.936-53.333,53.333
				S226.603,106.667,256,106.667z M256,21.333c17.643,0,32,14.357,32,32c0,17.643-14.357,32-32,32s-32-14.357-32-32
				C224,35.691,238.357,21.333,256,21.333z"/>
			<path d="M298.667,128h-85.333C183.936,128,160,151.936,160,181.333v128c0,17.643,14.357,32,32,32
				c3.733,0,7.339-0.64,10.667-1.813V480c0,17.643,14.357,32,32,32c8.213,0,15.659-3.2,21.333-8.32
				c5.675,5.12,13.12,8.32,21.333,8.32c17.643,0,32-14.357,32-32V339.52c3.328,1.173,6.933,1.813,10.667,1.813
				c17.643,0,32-14.357,32-32v-128C352,151.936,328.064,128,298.667,128z M330.667,309.333c0,5.888-4.779,10.667-10.667,10.667
				s-10.667-4.779-10.667-10.667V224c0-5.888-4.779-10.667-10.667-10.667S288,218.112,288,224v256
				c0,5.888-4.779,10.667-10.667,10.667s-10.667-4.779-10.667-10.667V352c0-5.888-4.779-10.667-10.667-10.667
				s-10.667,4.779-10.667,10.667v128c0,5.888-4.779,10.667-10.667,10.667S224,485.888,224,480V224
				c0-5.888-4.779-10.667-10.667-10.667s-10.667,4.779-10.667,10.667v85.333c0,5.888-4.779,10.667-10.667,10.667
				s-10.667-4.779-10.667-10.667v-128c0-17.643,14.357-32,32-32h85.333c17.643,0,32,14.357,32,32V309.333z"/>
		</g>
	</g>
</g>
</svg>