<?xml version="1.0" encoding="UTF-8"?>
<svg id="Capa_1" data-name="Capa 1" xmlns="http://www.w3.org/2000/svg" viewBox="0 0 28 19.78">
  <defs>
    <style>
      .cls-1 {
        fill: #fffffe;
      }

      .cls-2 {
        fill: #cd1918;
      }
    </style>
  </defs>
  <path class="cls-2" d="M0,12.7v-4.43c.01-.38-.02-.77,0-1.15C.08,5.66.3,2.9,1.18,1.72,2.4.1,4.4.28,6.21.19c4.72-.24,9.52-.23,14.26-.05,1.3.05,2.75,0,4.03.23,3.43.6,3.33,4.48,3.43,7.22.1,2.56.21,6.06-.36,8.55-.84,3.73-3.4,3.36-6.56,3.49-4.63.2-9.24.2-13.87,0-3.59-.15-6.19.16-6.85-4.13-.13-.84-.24-1.97-.28-2.81ZM11.1,5.65v7.87l7.54-3.88-7.54-3.99Z"/>
  <polygon class="cls-1" points="11.1 5.65 18.63 9.64 11.1 13.52 11.1 5.65"/>
</svg>