<?xml version="1.0" encoding="UTF-8"?>
<svg id="Capa_2" xmlns="http://www.w3.org/2000/svg" version="1.1" xmlns:xlink="http://www.w3.org/1999/xlink" viewBox="0 0 1406.8 324.1">
  <!-- Generator: Adobe Illustrator 29.0.0, SVG Export Plug-In . SVG Version: 2.1.0 Build 186)  -->
  <defs>
    <style>
      .st0 {
        fill: #ef265c;
      }

      .st1 {
        fill: #f13d78;
      }

      .st2 {
        fill: #d91c48;
      }

      .st3 {
        fill: #d91b47;
      }

      .st4 {
        fill: #f35294;
      }

      .st5 {
        fill: #f13d79;
      }

      .st6 {
        fill: #ef255b;
      }

      .st7 {
        fill: none;
      }

      .st8 {
        fill: #dc3a6d;
      }

      .st9 {
        fill: #dd3d71;
      }

      .st10 {
        fill: #db3b6f;
      }

      .st11 {
        fill: #f35394;
      }

      .st12 {
        fill: #dd3c70;
      }

      .st13 {
        fill: #ee2155;
      }

      .st14 {
        fill: #f35293;
      }

      .st15 {
        fill: #dc3b6f;
      }

      .st16 {
        fill: #f13e79;
      }

      .st17 {
        fill: #e7447d;
      }

      .st18 {
        clip-path: url(#clippath);
      }

      .st19 {
        fill: #ee4a87;
      }

      .st20 {
        fill: #e34279;
      }
    </style>
    <clipPath id="clippath">
      <rect class="st7" width="1406.8" height="324.2"/>
    </clipPath>
  </defs>
  <g class="st18">
    <g id="Capa_1-2">
      <g>
        <path class="st14" d="M943.1-32.9c-10.6,5.3-22,5.5-33.2,2.5,2.5,9.7.8,19.3-2,28.7-3,5.4-3.5,13.6-1.7,24.7-12.8,20.9-28.8,38.2-48,51.9-10.1,3.8-16.3,12-20.3,22.8-11.3,20.6-27.3,37.7-46.2,49.8-9.6,3.6-14.9,10.6-18.5,20.7-10.4,20-26.2,36.6-44.3,47.7-10.6,4.4-18,13.3-22.1,24.9-10.7,20.5-27.5,38.2-46.2,49.8-10.8,4.3-17.6,13.6-22.1,24.9.5,5-2.2,9.7-8.3,13.9l7.7,1.1c89.2-97.8,177.3-193,264.2-285.6l4.3.6c5.5,18.2-.2,40.3-7,57.7.9,4.7.9,10.2.1,16.5-61.2,76-127.1,148-195.7,215.8-47.8-.2-95.7-.6-143.5-.9.4-2.1.9-4.2,1.7-6.3s1.5-3.9,2.7-5.3c8.5-10.3,17.2-20.3,26.3-29.9,3.1-3.3,6.5-5.8,9.9-2.1,10.6-4.4,18-13.4,22.1-24.9,10.2-20.1,27.8-38.9,46.2-49.8,10.1-3.3,16.7-12.1,20.3-22.8,10.2-20.1,27.8-38.9,46.2-49.8,10.1-4.1,16.7-11.7,20.3-22.8,9.5-19.4,26.6-37.6,44.3-47.7,10.6-4.4,18-13.3,22.1-24.9,12.6-22.7,30.8-42.8,51.7-56,9.9-3,15.5-13.5,20.3-22.8-8.6,3.6-14.8,2.9-18.6-1.9.9-2.2,2.6-2,4.4-2.2,15-1.9,36.7-.4,52.4-.4,3.2,0,8.3-1.4,10.2,2h0Z"/>
        <path class="st14" d="M1220.8-31.1c-.3,1.8-1,1.8-1.9,0-5.2,3.3-10.7,4.8-16.5,4.5-105.7,115.2-211.4,230.3-317.2,345.4l-19.1,17.6c-.5.9-1.1.9-1.9,0-21,.7-42.3.5-63.3.5l-1.4-4.3c110.3-120.5,220.6-241.1,331-361.8l8.3-3.2c23.9,0,47.8-.7,71.8-.6,3.2,0,8.3-1.4,10.2,2h0Z"/>
        <path class="st14" d="M1120.2-32.3l1.7,3.9c-109.1,120.6-218.4,241.4-327.6,362.2l-8.2,3.3c-21.2,0-42.2-1.4-63.4-1.5,5.1-12.8,12.9-24,23.5-33.7,101.1-109.3,202.4-219.6,304-330.9l-.8-4.7c23.7,0,47.2,1.3,70.8,1.5h0Z"/>
        <path class="st14" d="M551.8-33.7l1.7,3.9L227.7,327.3c5.6-1,9,.3,10.4,4.1,6.1-5.5,21.9-5.3,26.1,1.8-36,.3-72.1-.8-108.1-1.1l-1.4-4.3C263.2,207.9,371.6,88,480.2-31.9l8.2-3.3c21.1.2,42.2,1.3,63.4,1.5h0Z"/>
        <path class="st14" d="M395.3-36.5c1.6.6,1.6,1.3,0,2.1.4,2.9-1,4.6-4.3,5.1L65.6,327.6l-8.3,3.2c-21.1-.2-42.3.4-63.3.5l-1.4-4.3C101.7,207.2,210.8,87.3,319.9-32.6l8.3-3.3c.5-.9,1.1-.9,1.9,0,21.6-.7,43.6-.6,65.2-.6h0Z"/>
        <path class="st14" d="M471.7-35.1l1.4,4.3c-108.4,119.8-216.9,239.7-325.5,359.7l-8.2,3.3c-20.3-.2-41.9-1.4-61.5-1.5l-1.4-4.3L399.9-30c-1.9,0-3.4-1.6-4.6-4.4v-2.1c25.4.1,50.9,1.2,76.4,1.4Z"/>
        <path class="st14" d="M876.1-32.3l-14,19.6c-94.1,106.4-190,211-286,315.3-10.7,11.6-22.4,22.1-34.1,32.4-19.5,0-39.3-1.3-58.5-1.3-2.7,0-21.5,5.4-21.6,0,4.7-3,9-5.4,14.1-3.6,110.1-117.8,221-238.5,328-356.9l8.9-4.9c21.1-.1,42.3-.8,63.3-.5h0Z"/>
        <path class="st14" d="M794.1-31.6l1.7,3.9-325.8,358-8.2,3.2c-20.3.8-43.2,1.4-63.3.5l-1.7-3.9L721.8-27l9-4.1c21-.8,42.3-.2,63.3-.5Z"/>
        <path class="st14" d="M330.1-35.9h-1.9c-4.6,2.9-8.9,5.5-14.1,3.6C200.7,91.4,89.6,212.7-19,331.5c-10.5,0-21.1.2-31.7.3-.6-14.5.4-28.9,1.5-43.3l2.3-8.3C49.3,175.4,145.5,70.7,241.7-34.1l8.3-3.2c23.3.1,46.6-.8,69.9-.6,3.2,0,8.3-1.4,10.2,2h0Z"/>
        <path class="st14" d="M1459.3-31c12.3,0,24.7-.6,37,0,3,2.1,3.9,44.7.7,51.2-4-2.1-5-6.6-3.1-13.3-91.9,104.4-185.3,208.3-283.2,306.1-.7,1.5-1.8,2.3-3.2,2.8-3.4,1.3-35-22.3-33.7-28.2.2-1.1.7-2.1,1.3-3.1l-1.7-3.9c92.5-102.7,185.2-205.4,277.8-308.2l8.2-3.2h0Z"/>
        <path class="st14" d="M1444.4-30.9l1.7,3.9c-92.7,100.7-185.4,201.5-278.1,302.3l-4.2-1.2c-2.4,4-5,3-8,.3-8.9-8.1-20.6-19.1-23.9-30.9l-1.7-3.9L1371-26.1c-4.3.9-7.2-.4-8.6-4.1,7.2-5.6,17.4-.4,25.1-.1,18.8.7,38.1-.6,56.9-.6h0Z"/>
        <path class="st14" d="M631.9-32.3c.9,1.3,2.1,3.4,1.5,4.2-24.8,29.7-52.7,60.2-79,88.7-5.9,9-12.7,14.6-20.3,17-.3,1.8-1,1.7-1.9,0-11.2,6.9-21.7,16.8-30.8,26.9l-70.8,81.4c-29.2,34.7-62.5,61.5-98.2,87.2-11.4,8.2-77.2,54.3-81.9,53.5-3.8-.6-4.7-1-3.1-5.7l9.9-15.2c101-113.3,202.8-224.7,305.4-334.4l7.8-5.3c20.5.2,41,1.4,61.5,1.5h0Z"/>
        <path class="st14" d="M1497.6,90.1l-3,9c-72.6,79-145.2,157.9-217.8,236.9l-8.2,3.1c-6.2.2-12.4,0-18.6.2-9.6-2.1-24-6.7-28.1-16.2l-1.7-3.9c90.8-99.4,181.7-198.7,272.5-298.1l4.3,1.1c.4,22.6.3,45.3.6,68h0Z"/>
        <path class="st14" d="M231.3-37.1l-9.3,14.3C131.1,77.6,41.5,176.5-46.7,273.8l-2.6.3c2-31.2,3.8-62.6,2.8-93.9l1.9-4.9c3.3,1.5,4.7,5.3,4,11.6L159.8-35.5l8.1-3.2c21.2,0,42.2,1.4,63.4,1.5Z"/>
        <path class="st14" d="M1360.6-30.2l1.7,3.9c-157.1,172.4-235.6,258.7-235.6,258.7l-4.3-1.1c-7.3,2.1-16.2-8.6-18.8-16.3-6.1,3.8-15.2-13.4-11.3-18.4l9.6-13.9c62-68.9,124.2-137.5,186.5-205.7l10.8-8.6c20.9,0,40.8,0,61.5,1.5h0Z"/>
        <path class="st14" d="M730.7-31.1c-4.7,3-8.9,5.4-14.1,3.6-110.3,118-221.6,239.9-328,358.7l.5,3c-10.1-1.1-22.7,2.8-31.7-1.8,43.1-47,85.5-95.7,127.3-146l22.2-22-.9-4.6c16.2-17.5,34.3-37,41.1-61.4-1.7-7.1-1.7-12.6.1-16.7,1-2.6,2.1-5.2,3.4-7.7,1.3-2.4,2.6-4.8,4.3-6.7,27.3-30.5,55.2-60.8,83-90.8,3.6-3.9,8.2-6.5,12.7-9,24.2.2,49.7-1.9,73.6-.6,2.2.1,6.5-1.2,6.5,2h0Z"/>
        <path class="st14" d="M1282.3-31.6l1.7,3.9c-65,71-130,142-195,213l-4.2-1.1-4,1.8c-11.2-8.9-23.3-14.8-36.3-17.8l-2.7-4.2-1.7-3.9s56.9-62.7,170.8-188l8.2-3.1h1.9c20.4-.7,41-.4,61.5-.5h0Z"/>
        <path class="st14" d="M1498.3,176.6l-2.8,8.9c-46.2,50.7-92.5,101.3-138.7,152l-8.1,3c-24.4,0-49.3,1.5-73.6.7-2.2,0-6.5,1.1-6.5-2.1,5.6-2.8,11.5-4.7,17.6-5.5l207.2-226.1,4.3,1.1c.3,22.6.2,45.3.6,68h0Z"/>
        <path class="st14" d="M108.3-38.2c14.2-.3,28.6-.4,42.8-.4l1.7,3.9C24.1,106-40.3,176.4-40.3,176.4l-4.3-1.1c-.4-23.3-.2-46.7-.6-70l2.8-8.8C-1.6,52.5,39.1,8.7,79.8-35.1l8-2.9c6.5-1.9,13.9-1.9,20.5-.2Z"/>
        <path class="st14" d="M1060.7,209.1l1.7,3.9c-36,40.5-72.1,81-108.2,121.6l-8,3.1c-23.9.2-47.8.7-71.8.6-3.2,0-8.3,1.4-10.2-2h1.9c4.6-3.1,8.9-5.5,14.1-3.6l123.9-133.5c9.6-9.7,19.6-18.7,30.2-27,1.2-.8,3.2-2,3.9-1.1,3.4,3.9,23.9,32.4,23.6,35.2,0,1-.6,1.9-1.2,2.8h0Z"/>
        <path class="st14" d="M1500.9,263.1l-2.7,8.7-58.1,62.8c4.3.2,6.8,1.9,7.5,5.2,1.6.6,1.6,1.3,0,2.1-26.7-.3-53.3-1.3-80.1-1.4l-1.7-3.9c42.8-46.8,85.7-93.6,128.5-140.4l4.2,1.2c.4,21.9,2.8,43.7,2.4,65.9h0Z"/>
        <path class="st6" d="M894.7-30.4c-4.1,8.9-11.1,20.8-20.3,22.8-17.5,18.4-34.5,37.2-51.7,56-3.8,11.4-11.7,21-22.1,24.9-14.4,15.7-29.7,31.8-44.3,47.7-3.1,10.9-10.5,19.3-20.3,22.8-15,16.4-30.9,33.2-46.2,49.8-3.2,10.6-10.4,20.1-20.3,22.8-15,16.3-30.9,33.2-46.2,49.8-3.8,11.4-11.7,21-22.1,24.9-1.3,1.4-5.1,2.6-7.4,5.1-11.4,12.3-22.7,25.2-33.2,38.4-6.2,0-12.4.2-18.6.2,109.9-123.9,223.8-243.8,334.2-367.3,4.3,0,17.5-1.7,18.6,1.9h0Z"/>
        <path class="st6" d="M1138.8-32.5l-337.9,369.4c-4.9,0-9.9.1-14.9.1L1120.2-32.3c6.2,0,12.4-.2,18.6-.2Z"/>
        <path class="st6" d="M812.7-31.8c-9,11.5-18.7,22.6-28.5,33.2-102.4,110.1-203.1,223.5-306.6,332-5.3.4-10.5,0-15.8.2L794.1-31.6c6.2,0,12.4-.1,18.6-.2h0Z"/>
        <path class="st6" d="M488.4-35.2L156.1,332.1c-5.6,0-11.2.2-16.8.1L471.7-35.1c5.6,0,11.2-.2,16.8-.1Z"/>
        <path class="st6" d="M1049.3-33.8l7.5,3c-73.9,78.6-145.7,160-218.7,239.7-24.9,27.2-50.8,53.7-75.8,80.8-13.6,14.8-26.9,30-39.6,45.7-6.2,0-12.4.2-18.6.2,64.5-72.6,130.2-144.2,195.7-215.8,0-8,4-12.1,11.1-12.4,37.5-47.4,77.5-92.2,120-134.5l9.2-6.6c3.1,0,6.2,0,9.3,0h0Z"/>
        <path class="st6" d="M570.5-33.8c-15.8,19.2-32.2,37.9-48.8,56.1-91,99.6-185.1,197-274.2,298.8,1.3,5.3-1.8,8.8-9.2,10.4-6.1,0-12.7,1-18.6-.9L551.8-33.7c6.2,0,12.4-.2,18.6-.2h0Z"/>
        <path class="st6" d="M328.2-35.9L-6,331.4c-4.4,0-8.7.1-13,.1-2.9-3.8-.2-4.7,1.7-7.2,18.3-23.4,40.4-43.7,60.1-65.3C132.4,160.6,221.8,60.8,312.4-35.7c5.3-.4,10.5,0,15.8-.2h0Z"/>
        <path class="st6" d="M395.3-34.4c1-.1,14.2-1.7,12.1,2L77.9,330.7h-1.9c-6.1,1.8-12.5,1.8-18.6.2L387.8-31.4c2.2-3.2,4.6-2.6,7.5-3Z"/>
        <path class="st6" d="M730.7-31.1l-332.3,365.2c-3-.1-6.5.5-9.3,0-1.9-.3-5.3-2.7-7.5-3,5.4-5.7,10.2-12,15.6-17.7,107.3-112.9,209.9-232.6,317.7-344.4,5.3-.4,10.5,0,15.8-.2h0Z"/>
        <path class="st14" d="M1096.5,260.3c-2.3,5.1-4.7,10.2-8.3,14.4-15.4,17.9-31.2,35.8-47.1,53.2-3.7,4-8.4,6.7-13,9.3-2,2.1-5,1.3-7.5,0-18.6.7-37.3.2-55.9.5l-1.4-4.3c34.1-37.7,68.3-75.4,102.4-113.1l4.2,1.2c12.3,6,24.7,24.1,26.4,38.9h0Z"/>
        <path class="st14" d="M108.3-38.2c-6.8.1-13.7-.1-20.5.2-5.6,2.8-11.5,4.7-17.6,5.5L-41.1,87.9l-4.2-1.2c-.4-22.8-1.6-45.2-2.4-67.9l3.3-9.2C-29.9-5.7-15.3-20.9-.8-36.2l8.5-3.2c.5-.9,1.1-.9,1.9,0,29.4-1,59.1-.9,88.5-.8,3.2,0,8.3-1.4,10.2,2h0Z"/>
        <path class="st6" d="M249.9-37.3L-49.2,288.5c.3-4.5-.8-10.2-.1-14.4,1.5-10.1,7-10.8,12-16.5C50.3,157.3,142.7,62,231.3-37.1c6.2,0,12.4-.2,18.6-.2Z"/>
        <path class="st6" d="M1497,20.1v2.1s-275.1,300.9-275.1,300.9c-.5,1.7-1.1,1.7-1.9,0-4.3,3.9-11.6-2.3-9.4-8.2-1.6-.6-1.6-1.3,0-2.1,94.4-104.5,190.4-207.2,285.3-311.3,1.8,5.8,1,12.5,1.1,18.5Z"/>
        <path class="st6" d="M1459.3-31l-284.3,315.4c-.5,1.8-1.1,1.8-1.9,0-6.2,2-9.7-1.1-9.4-8.2-1.7-.6-1.7-1.3,0-2.1L1444.4-30.9c4.9,0,9.9-.1,14.9-.1h0Z"/>
        <path class="st5" d="M506.9,164.4c-8.1,9.5-16.7,17.1-25.9,22.9,1.4,2.4-1.4,5.5-3.7,4.2-3.8,1.7-6.7,4.9-9.3,8.3-3.3,4.5-6.6,8.9-10.1,13s-7.1,8.3-11,11.9c-35.2,32.4-70.6,64.7-106.6,96.2-.2.2.5-7.2.1,1.4-4.1.5-9.1-.6-13,.1l-1.7-3.9c71.5-79,142.9-157.9,214.4-236.9h5.1c.4-1.6,1.1-1.6,1.9.1,1,5.6,4.2,8.8,3.8,15.1-1.1,19.5-30.7,54.9-44.1,67.6Z"/>
        <path class="st6" d="M1362.4-30.2c5.4.4,11.7-1.3,16.8.9l-247.4,272.9c-.5,1.8-1.1,1.8-1.9,0-4.3-.8-8.6-5-7.5-10.2-1.6-.6-1.6-1.3,0-2.1L1360.5-30.2c.6,0,1.2,0,1.9,0h0Z"/>
        <path class="st5" d="M532.3,77.7c1.1,1.1,2.3,3.2,1.7,3.9-67.3,75.8-137.4,152.8-207,227.1-7.8,10.5-16.9,18.6-27.4,24.2-10.9,1-24.3.5-35.4.3-7.4-.1-17.1-1.8-26.1-1.8,1.7-4.9,6.4-7.2,9.2-10.4,1.3,4.4,5.5-.1,7.3-1.3,60.4-38.6,121.5-77.6,171.5-132,24.7-26.9,47.7-60,72.8-86.1,8.4-8.8,21.6-22.9,33.4-23.9h0Z"/>
        <path class="st13" d="M545.3,81.7l-217.9,240.7c-10.2,1.8-14.2,9.3-27.9,10.5l232.6-255.2c.6,0,1.3,0,1.9,0,4.9-4.2,11.5-3.2,11.2,4h0Z"/>
        <path class="st6" d="M1497.7,108.6l-209.5,228.4-3.8,1.9c-5.3.4-10.5,0-15.8.2l228.9-249c0,6.2,0,12.4.2,18.5h0Z"/>
        <path class="st6" d="M167.9-38.7L-43.5,195.8c-1.8-6.5-1-13.8-1.1-20.6L151.1-38.5c5.6,0,11.2-.1,16.8-.1h0Z"/>
        <path class="st6" d="M1299-31.7c-23.8,28.1-48.2,55.9-72.8,83-44.1,48.5-88.8,97.7-133.9,145.2-5.6,1.4-9.9-4.5-7.5-10.2-1.6-.6-1.7-1.3,0-2.1l197.6-215.8c5.6,0,11.2-.1,16.8-.1Z"/>
        <path class="st14" d="M1040-33.7c-41.9,48.3-86.2,94.1-129.3,141.1-4.8,2.3-5.6-.4-1.9-4.1l-.5-3.3c29.2-41,57.5-83.2,80.9-128.9l6.1-4.4c14.9-.1,29.8-.4,44.7-.4Z"/>
        <path class="st10" d="M995.3-33.3c-6.1,14.8-14.2,28.5-22.4,42-15.8,26.3-44.6,73.4-64.1,94.6.1,7.5-10.2,10.9-5.6,0,9.6-23.5,17.9-47.9,25.5-72.3-2.3-4-1.1-8.8,3.6-14.4-3.6-3.9-3.1-5,1.8-4.1,10.9-17.2,26.2-35.1,42.5-45.7,6.2,0,12.4-.1,18.6-.2h0Z"/>
        <path class="st6" d="M1498.5,197.2l-131.1,143.2c-6.2,0-12.4.2-18.6.2l149.6-163.9c.1,6.8,0,13.7.2,20.6h0Z"/>
        <path class="st14" d="M1123.1,319.8c1.6.7,1.6,1.4,0,2.1-.7,7.3-10.3,14.3-16.6,16.6-24.9,1.1-50.5.8-75.5.7-3.2,0-8.3,1.4-10.2-2,2.5,0,5,0,7.5,0,12.7-4.5,21.9-9.6,31.6-21.6l37.4-41.6,6.9-1.2c9.7,4.3,19.8,29.5,21.5,41.2l-2.5,6h0Z"/>
        <path class="st6" d="M87.8-38L-45.1,105.2c-.1-6.2,0-12.4-.2-18.5L68.2-35.9l3.8-1.9c5.3-.4,10.5,0,15.8-.2h0Z"/>
        <path class="st15" d="M481,187.3c3.5-2.8,5.1-2.7,4.8,0-40.9,49.5-84.3,99.1-128.9,144l-1.4-.9c-5.7-3.5-9.3-5.2-15-8.1-.9-.4-5.1-2.5-2.8-4.1,43.6-39.3,87.4-78.4,130.4-118.5,2.6-3.4,5.4-6.6,9.3-8.3,1-.9,2.1-2.6,3.7-4.2h0Z"/>
        <path class="st6" d="M1070.1,219.3c1.6.7,1.6,1.4,0,2.1l-105.2,116.2c-6.2,0-12.4.1-18.6.2l114.4-128.6c.5-1.8,1.1-1.8,1.9,0,4.2-.3,10.5,5.7,7.5,10.2h0Z"/>
        <path class="st6" d="M650.6-32.5c-32.9,39.7-69.2,75.8-103.4,114.1-.6,0-1.3.1-1.9,0-3-.5-5.6-3.6-11.2-4l97.8-110c6.2,0,12.4-.2,18.6-.2h0Z"/>
        <path class="st4" d="M1500.9,263.1l2.5,78.2c-18.6-.1-37.3.7-55.9.5v-2.1s-1.5-2.4-1.5-2.4c15.7-18.2,32.2-36.2,49.5-54.2,1.5-6.8,3.3-13.5,5.4-20.1h0Z"/>
        <path class="st10" d="M1175,284.3c2.6,6.7,12.3,13.4,18.2,18,5.3,4,11.1,9.1,17.4,10.5-.3.3.3,1.7,0,2.1l.3,5.3c-6.8,7.1-13.6,12.9-20.6,17.5-2.1-.4-4.1-1.8-5.6-2-10.9-5.9-20.6-14.5-28.9-25.7l.7-5c-1.6-.6-1.6-1.3,0-2.1.6-6,10.9-22.6,16.6-18.7.4-.3,1.2.2,1.9,0h0Z"/>
        <path class="st16" d="M943.1-32.9c4.9,0,9.9,0,14.9-.1.5,1.9,0,2.6-1.8,2.1-7.3,2.6-9.9,6.9-12.9,14.5,3.4,4.5,1.6,8.2-3.7,6.2-6.2,13.4-18.3,27.6-31.4,31.2-4-9.8-4.1-17.4-.2-22.7,0-10.3-.2-20.6-.3-30.9,11.8-.2,23.6-.1,35.4-.3Z"/>
        <path class="st0" d="M7.7-39.4L-47.7,18.7c-.2-6.2,0-12.4-.2-18.5,3.1-7.6,24.6-35.3,30.1-38,7.1-3.5,18.2-3.4,25.4-1.6Z"/>
        <path class="st11" d="M9.5-39.4h-1.9c-5.5.3-13.9-1.2-18.6,1.2C-18.7-34.2-38.1-5.6-47.9.2c-.5-13.8-.8-27.4-2.2-41.2,16.4,0,32.9-.5,49.4-.4,3.2,0,8.3-1.4,10.2,2h0Z"/>
        <path class="st5" d="M1184.7,335.7c-30.2-5.4-32.5-.9-59.6,2.6-1.6-.6-1.6-1.3,0-2.1l1.5-6.9c8.5-8.5,17-16.9,25.5-25.4l4.5,1.1,28.2,30.7h0Z"/>
        <path class="st20" d="M506.9,164.4l-149.5,168.1c-.7-.4-1.2-1.6-1.9-2,3.7,0,5.1-2.8,7.4-5.2,38.1-39.3,84.8-90.8,119-133.9,2.5-3.1,5.2-4.6-1-4.1,8.3-7.9,18-15.4,25.9-22.9h0Z"/>
        <path class="st3" d="M976.7-33.2c-12.8,16.7-27.1,32-42.5,45.7-2.9-7.2-1.1-14.8,5.4-22.7,1.4-1.5,2.3-4.7,3.7-6.2,2.2-7,6-13.2,12.9-14.5.5-.7,1.3-1.3,1.8-2.1l18.6-.2h0Z"/>
        <path class="st9" d="M1250,339.3c-19.3.4-41.2,2.2-59.6-1.6,2.9-3.6,7.8-5.2,14.6-4.6,5.4-8.2,10.5-11.5,15.1-10.1.3-.2,1.3,0,1.9,0,4.7.2,22.6,13.1,28.1,16.2h0Z"/>
        <path class="st0" d="M1125.1,336.2v2.1c-5.8.7-12.6-.1-18.6.2,4.3-6.7,9.7-13.4,16.6-16.6,7.1.9,6.2,8.9,2,14.4Z"/>
        <path class="st14" d="M76,330.7c-4.3,4.4-12.2,1.3-17.7,2.2l-1-2c6.2,0,12.4-.2,18.6-.2Z"/>
        <path class="st6" d="M908.4,41.6c5,2.1,3.4,5.5-1.8,4.1-6.7,10.1-23.8,23.7-32.4,33.2-77.8,85.3-155.1,172.4-234.5,255.3h-17.7c4.3-7.3,10.9-12.5,16.6-18.5,4.2-11.1,11.6-21.1,22.1-24.9,15.2-16.8,30.9-33.1,46.2-49.8,3.8-11.4,11.7-21,22.1-24.9,14.6-16,29.7-31.7,44.3-47.7,3-10.1,9.1-17.9,18.5-20.7,15.3-16.7,30.9-33.2,46.2-49.8,3.6-10.6,10.4-19.5,20.3-22.8,15.9-17.3,32-34.7,48-51.9,5.7,2.3,4.8,13.6,2,18.5h0Z"/>
        <path class="st5" d="M928.8,31.1c-7.7,24.4-15.8,48.7-25.5,72.3.2,10.7-5.7,9.2-3.7,0,3.3-19,5.1-38.4,7-57.7.5-.7,1.8-3.6,1.8-4.1-.4-.7-.6-1.4-.5-2,.5-4.7,19.1-26.4,24.6-22.9-1.3,4.9-2.2,9.6-3.6,14.4h0Z"/>
        <path class="st14" d="M822.7,48.4c1.5,12.3-10.5,27-22.1,24.9,7.4-8.1,14.7-16.7,22.1-24.9Z"/>
        <path class="st14" d="M729.1,216c-7.4,8.1-14.7,16.7-22.1,24.9-1.5-12.3,10.5-27,22.1-24.9Z"/>
        <path class="st14" d="M623.3,266.4c1.5,12.3-10.5,27-22.1,24.9,7.5-8.1,14.7-16.7,22.1-24.9Z"/>
        <path class="st14" d="M669.5,216.5c6.8-7.5,13.4-15.3,20.3-22.8,2.5,10.8-10.3,27.4-20.3,22.8Z"/>
        <path class="st14" d="M660.8,290.8c-7.5,8.3-14.4,16.8-22.1,24.9-.4-12.5,9.9-27,22.1-24.9Z"/>
        <path class="st14" d="M874.4-7.6c6.6-7,12.2-17.1,20.3-22.8,2.5,8-11.6,28.8-20.3,22.8Z"/>
        <path class="st14" d="M735.9,143.9c6.8-7.5,13.4-15.3,20.3-22.8,1.7,12.9-8.6,24.5-20.3,22.8Z"/>
        <path class="st14" d="M858.3,74.9c-6.8,7.4-13.4,15.3-20.3,22.8-.6-12.3,8.4-24.9,20.3-22.8Z"/>
        <path class="st14" d="M791.8,147.5c-6.2,6.8-12.2,13.9-18.5,20.7-.6-12.8,6.4-22.4,18.5-20.7Z"/>
        <path class="st19" d="M899.6,103.4c0,7.7,1.4,3.5,3.7,0,0,1.4,0,2.7,0,4.1.3.3,4.8-3.4,5.5-4.2l1.9,4.1c-3.7,4-7.3,8.3-11.1,12.4-8-3.5-1.1-11-.1-16.5h0Z"/>
        <path class="st14" d="M908-1.7l.2,22.7c.8,1.8,0,2.4-1.8,2.1-.8-11.8-2.6-11-3.8-15.8-1.4-5.7-1.2-10.7,5.5-8.9Z"/>
        <path class="st6" d="M1218.9-31.1l-177.2,195.1c.9,5.1-2.5,11-7.4,8.3-50.3,54.9-101.7,110-152.4,163.9-5.3.4-10.5,0-15.8.2,109.7-123.7,222.5-244.5,334.2-366.2,4.7-2.4,13-1,18.6-1.2h0Z"/>
        <path class="st10" d="M1163.7,274.1c.3.3-.3,1.8,0,2.1-.2,8.4-9.1,17-16.6,16.6-9.4-4.1-23.6-21.7-29-31.8l.7-5c-1.6-.7-1.6-1.4,0-2.1.2-5,6.5-11.2,11.1-10.4h1.9c8.9,8.9,17.3,18.8,26.3,27.7,2.2,2.1,5.1,2.3,5.7,2.9h0Z"/>
        <path class="st1" d="M1103.6,214.9c4.3,7.2,8.2,14.7,11.7,22.4l-2.2,4.3c1.6.6,1.6,1.3,0,2.1-1.2,8.9-8.4,16.3-16.6,16.6-8.3-13.8-16.8-26.2-26.4-38.9-.3-.4.3-1.7,0-2.1,3.1-11.2,11.9-20.4,22.2-22.8,4.2,6.3,5.6,12.5,11.3,18.4Z"/>
        <path class="st12" d="M1122.4,231.2v2.1c3,5.3-4.9,12-9.2,8.3-3.9-8.3-9.6-17.3-9.6-26.7,5.1,5.2,13.6,10.1,18.8,16.3h0Z"/>
        <path class="st5" d="M1084.7,184.2c.3.3-.3,1.7,0,2.1-2.7,8.5-14.1,20.8-22.2,22.8h-1.9s-26.4-36.8-26.4-36.8c2.2-2.4,3.6-6.8,7.4-8.3,5.6,0,11.1,1.4,16.2,3.6,4.5,1.9,23.7,13.6,26.8,16.6h0Z"/>
        <path class="st6" d="M1447.5,339.7l-16.8-.9,70.2-75.8c0,5.4.9,12.5,0,17.5-1.7,10.1-45.5,47.6-53.5,59.2h0Z"/>
        <path class="st6" d="M1104.1,270.5c1.7.6,1.7,1.3,0,2.1-21.5,20.3-38.6,46.7-61.9,64.3-4.6.5-9.3,0-13.9.2,22.1-26.2,44.6-52.3,68.3-76.8,4.8-2.9,10.8,5.2,7.5,10.2h0Z"/>
        <path class="st2" d="M1220.1,323.1c-3.2,1.6-10.7,12.9-14.2,14.1-4.6,1.6-10.6,0-15.5.5-.7-3.5,1-4.2,2.8-6.2,4.9-5.4,12.4-11,17.5-16.7l9.4,8.2h0Z"/>
        <path class="st2" d="M1173.1,284.4c-3.8,2.5-10.7,16.3-16.6,18.7-4,4.3-11.7-2.6-9.4-8.2-1.6-.6-1.6-1.3,0-2.1,5.1-5.7,11.1-11.3,16.6-16.6,3,2.8,6.2,5.6,9.4,8.2Z"/>
        <path class="st20" d="M477.3,191.4c-3,2.9-6.5,5.8-9.3,8.3,2.1-3.9,4.8-8,9.3-8.3Z"/>
        <path class="st2" d="M1129.9,243.5c-2.5,4.5-6,9.7-11.1,10.4-5.3,2.5-9.3-5.7-5.7-10.3-.3-.5.2-1.5,0-2.1l9.3-8.3c3.6,2.3,7.3,5.3,7.5,10.2Z"/>
        <path class="st13" d="M1092.3,196.5c-7.3,7.7-14.6,15.5-22.2,22.8-2.2-2.8-6.9-4.8-7.5-10.2,6.1-8.9,13.5-17.1,22.2-22.8,2.3,2.5,5.5,7.2,7.5,10.2Z"/>
        <path class="st13" d="M934.2,12.5c-.4,1.4-1.5,2.8-1.8,4.1l-24,24.9c0-.3-1.9-2.3-2-5,0-4.5.2-9.1,0-13.5.6-.7,1.2-1.4,1.8-2.1,10-10.7,21.7-20.7,31.4-31.2-1.5,7.6-3.5,15.2-5.4,22.7Z"/>
        <path class="st17" d="M903.3,103.4c0-2.1,0-4.2.8-6.2l24.7-66.1c-5.9,20.9-14,55-25.5,72.3h0Z"/>
        <path class="st1" d="M1118.9,256c.3.5,3.7,3.6,6.7,8.1,6.6,9.9,14.7,19,21.6,28.8-.3.3.3,1.7,0,2.1-2.3,11.5-13.4,22.8-24,24.9-3.8-18.3-10.5-31.4-19-47.2-.3-.5.3-1.5,0-2.1-3.6-5.3,9.9-18,14.8-14.5h0Z"/>
        <path class="st13" d="M1156.5,303v2.1s-31.4,31.2-31.4,31.2c.7-5.1-1.2-9.6-2-14.4-.1-.7.1-1.4,0-2.1,8-8.1,16.4-16.4,24-24.9l9.4,8.2h0Z"/>
        <path class="st8" d="M956.2-30.9c-4.4,6.4-8.2,9.3-12.9,14.5.6-10.4,2.2-16.5,12.9-14.5Z"/>
        <path class="st13" d="M1118.8,253.9c.3.5-.3,1.6,0,2.1l-14.8,14.5c-1.2-2.2-5.4-6.7-7.5-10.2,5.4-5.6,10.9-11.4,16.6-16.6,1.4,2.8,4,7.4,5.7,10.3Z"/>
      </g>
    </g>
  </g>
</svg>