<?xml version="1.0" encoding="UTF-8"?>
<svg id="Capa_1" data-name="Capa 1" xmlns="http://www.w3.org/2000/svg" viewBox="0 0 28 28">
  <defs>
    <style>
      .cls-1 {
        fill: #fff;
      }

      .cls-1, .cls-2 {
        fill-rule: evenodd;
      }

      .cls-2 {
        fill: #087fbc;
      }
    </style>
  </defs>
  <path class="cls-2" d="M3.11,28h21.78c1.72,0,3.11-1.39,3.11-3.11V3.11c0-1.72-1.39-3.11-3.11-3.11H3.11C1.39,0,0,1.39,0,3.11v21.78c0,1.72,1.39,3.11,3.11,3.11Z"/>
  <path class="cls-1" d="M24.11,24.11h-4.16v-7.08c0-1.94-.74-3.02-2.27-3.02-1.67,0-2.54,1.13-2.54,3.02v7.08h-4v-13.48h4v1.82s1.2-2.23,4.06-2.23,4.91,1.75,4.91,5.36v8.54ZM6.36,8.86c-1.36,0-2.47-1.11-2.47-2.49s1.11-2.49,2.47-2.49,2.47,1.11,2.47,2.49-1.1,2.49-2.47,2.49ZM4.29,24.11h4.18v-13.48h-4.18v13.48Z"/>
</svg>